<?xml version="1.0" encoding="UTF-8" standalone="no"?>
<!DOCTYPE svg PUBLIC "-//W3C//DTD SVG 1.1//EN" "http://www.w3.org/Graphics/SVG/1.1/DTD/svg11.dtd">
<svg width="100%" height="100%" viewBox="0 0 1063 1063" version="1.1" xmlns="http://www.w3.org/2000/svg" xmlns:xlink="http://www.w3.org/1999/xlink" xml:space="preserve" xmlns:serif="http://www.serif.com/" style="fill-rule:evenodd;clip-rule:evenodd;stroke-linejoin:round;stroke-miterlimit:2;">
    <g transform="matrix(1,0,0,1,-723.827,-1753.94)">
        <g transform="matrix(0.533199,0,0,0.870279,253.376,1165.42)">
            <rect x="882.317" y="676.237" width="1993.61" height="1221.44"/>
        </g>
        <g transform="matrix(0.655541,0,0,0.655541,651.476,759.075)">
            <g>
                <path d="M308.166,2251.64L575.94,2251.64L575.94,2171.95L442.053,2171.95L442.053,2169.61L575.647,1956.03L575.647,1936.4L318.42,1936.4L318.42,2016.09L441.76,2016.09L441.76,2018.43L308.166,2233.18L308.166,2251.64Z" style="fill:white;fill-rule:nonzero;"/>
                <path d="M618.713,2251.64L711.291,2251.64L711.291,2066.19C711.291,2028.1 735.315,2008.47 765.49,2008.47C795.959,2008.47 815.588,2027.22 815.588,2065.31L815.588,2251.64L908.166,2251.64L908.166,2045.1C908.166,1978.59 870.959,1931.72 801.526,1931.72C767.541,1931.72 734.143,1942.85 713.928,1965.41L711.291,1965.41L711.291,1800.47L618.713,1800.47L618.713,2251.64Z" style="fill:white;fill-rule:nonzero;"/>
            </g>
            <g transform="matrix(1,0,0,1,-17.5781,0)">
                <path d="M409.24,2856.33C424.475,2856.33 440.295,2853.39 452.014,2849L452.014,2776.35C449.377,2777.22 444.983,2778.69 439.123,2778.69C423.596,2778.69 418.322,2769.02 418.322,2754.08L418.322,2400.47L325.744,2400.47L325.744,2768.14C325.744,2816.19 353.869,2856.33 409.24,2856.33Z" style="fill:white;fill-rule:nonzero;"/>
                <path d="M585.901,2856.33C630.139,2856.33 668.225,2837.87 684.338,2815.6L685.51,2815.6C693.42,2829.96 710.119,2844.02 737.658,2852.81L748.498,2856.33L781.018,2778.98L773.987,2776.64C760.51,2772.24 755.822,2761.99 755.822,2740.6L755.822,2645.68C755.822,2599.98 744.69,2531.72 626.33,2531.72C569.494,2531.72 521.74,2547.54 498.303,2561.01L529.065,2630.74C551.037,2616.97 587.951,2606.72 616.076,2606.72C649.182,2606.72 667.932,2622.24 667.932,2646.85L667.932,2662.67L608.459,2662.67C526.135,2662.67 478.381,2703.39 478.381,2760.23C478.381,2813.85 521.74,2856.33 585.901,2856.33ZM609.338,2786.89C585.315,2786.89 567.737,2774.59 567.737,2754.37C567.737,2731.52 585.901,2720.68 619.592,2720.68L672.326,2720.68L672.326,2740.31C672.326,2774.88 631.604,2786.89 609.338,2786.89Z" style="fill:white;fill-rule:nonzero;"/>
                <path d="M875.061,2851.64L951.233,2851.64L979.065,2787.18L1013.63,2701.93L1015.98,2701.93L1051.13,2787.18L1078.67,2851.64L1154.55,2851.64L1247.72,2536.4L1156.9,2536.4L1122.03,2683.18L1108.85,2739.72L1106.51,2739.72L1092.15,2703.98L1031.8,2549.59L998.108,2549.59L937.756,2703.98L923.108,2739.72L921.057,2739.72L908.166,2683.18L873.303,2536.4L781.897,2536.4L875.061,2851.64Z" style="fill:white;fill-rule:nonzero;"/>
            </g>
        </g>
    </g>
</svg>
